<svg viewBox="0 0 100 100" fill="none" xmlns="http://www.w3.org/2000/svg">
    <g transform="translate(10, 10) scale(0.8)">
        <circle cx="50" cy="50" r="45" stroke="#7e6c53" stroke-width="0.5" fill="none" />
        <circle cx="50" cy="50" r="40" stroke="#7e6c53" stroke-width="1" fill="none" />
        <path
            d="M50 18 C 58 35, 60 45, 50 50 C 40 45, 42 35, 50 18 Z"
            stroke="#7e6c53"
            stroke-width="0.6"
            fill="none"
            transform="rotate(0 50 50)"
        />
        <path
            d="M50 18 C 58 35, 60 45, 50 50 C 40 45, 42 35, 50 18 Z"
            stroke="#7e6c53"
            stroke-width="0.6"
            fill="none"
            transform="rotate(22.5 50 50)"
        />
        <path
            d="M50 18 C 58 35, 60 45, 50 50 C 40 45, 42 35, 50 18 Z"
            stroke="#7e6c53"
            stroke-width="0.6"
            fill="none"
            transform="rotate(45 50 50)"
        />
        <path
            d="M50 18 C 58 35, 60 45, 50 50 C 40 45, 42 35, 50 18 Z"
            stroke="#7e6c53"
            stroke-width="0.6"
            fill="none"
            transform="rotate(67.5 50 50)"
        />
        <path
            d="M50 18 C 58 35, 60 45, 50 50 C 40 45, 42 35, 50 18 Z"
            stroke="#7e6c53"
            stroke-width="0.6"
            fill="none"
            transform="rotate(90 50 50)"
        />
        <path
            d="M50 18 C 58 35, 60 45, 50 50 C 40 45, 42 35, 50 18 Z"
            stroke="#7e6c53"
            stroke-width="0.6"
            fill="none"
            transform="rotate(112.5 50 50)"
        />
        <path
            d="M50 18 C 58 35, 60 45, 50 50 C 40 45, 42 35, 50 18 Z"
            stroke="#7e6c53"
            stroke-width="0.6"
            fill="none"
            transform="rotate(135 50 50)"
        />
        <path
            d="M50 18 C 58 35, 60 45, 50 50 C 40 45, 42 35, 50 18 Z"
            stroke="#7e6c53"
            stroke-width="0.6"
            fill="none"
            transform="rotate(157.5 50 50)"
        />
        <path
            d="M50 18 C 58 35, 60 45, 50 50 C 40 45, 42 35, 50 18 Z"
            stroke="#7e6c53"
            stroke-width="0.6"
            fill="none"
            transform="rotate(180 50 50)"
        />
        <path
            d="M50 18 C 58 35, 60 45, 50 50 C 40 45, 42 35, 50 18 Z"
            stroke="#7e6c53"
            stroke-width="0.6"
            fill="none"
            transform="rotate(202.5 50 50)"
        />
        <path
            d="M50 18 C 58 35, 60 45, 50 50 C 40 45, 42 35, 50 18 Z"
            stroke="#7e6c53"
            stroke-width="0.6"
            fill="none"
            transform="rotate(225 50 50)"
        />
        <path
            d="M50 18 C 58 35, 60 45, 50 50 C 40 45, 42 35, 50 18 Z"
            stroke="#7e6c53"
            stroke-width="0.6"
            fill="none"
            transform="rotate(247.5 50 50)"
        />
        <path
            d="M50 18 C 58 35, 60 45, 50 50 C 40 45, 42 35, 50 18 Z"
            stroke="#7e6c53"
            stroke-width="0.6"
            fill="none"
            transform="rotate(270 50 50)"
        />
        <path
            d="M50 18 C 58 35, 60 45, 50 50 C 40 45, 42 35, 50 18 Z"
            stroke="#7e6c53"
            stroke-width="0.6"
            fill="none"
            transform="rotate(292.5 50 50)"
        />
        <path
            d="M50 18 C 58 35, 60 45, 50 50 C 40 45, 42 35, 50 18 Z"
            stroke="#7e6c53"
            stroke-width="0.6"
            fill="none"
            transform="rotate(315 50 50)"
        />
        <path
            d="M50 18 C 58 35, 60 45, 50 50 C 40 45, 42 35, 50 18 Z"
            stroke="#7e6c53"
            stroke-width="0.6"
            fill="none"
            transform="rotate(337.5 50 50)"
        />
        <circle cx="50" cy="50" r="18" stroke="#7e6c53" stroke-width="0.5" fill="none" stroke-dasharray="1 2" />
        <path
            d="M50 35 C 55 42, 55 48, 50 50 C 45 48, 45 42, 50 35 Z"
            stroke="#7e6c53"
            stroke-width="0.8"
            fill="none"
            transform="rotate(0 50 50)"
        />
        <path
            d="M50 35 C 55 42, 55 48, 50 50 C 45 48, 45 42, 50 35 Z"
            stroke="#7e6c53"
            stroke-width="0.8"
            fill="none"
            transform="rotate(45 50 50)"
        />
        <path
            d="M50 35 C 55 42, 55 48, 50 50 C 45 48, 45 42, 50 35 Z"
            stroke="#7e6c53"
            stroke-width="0.8"
            fill="none"
            transform="rotate(90 50 50)"
        />
        <path
            d="M50 35 C 55 42, 55 48, 50 50 C 45 48, 45 42, 50 35 Z"
            stroke="#7e6c53"
            stroke-width="0.8"
            fill="none"
            transform="rotate(135 50 50)"
        />
        <path
            d="M50 35 C 55 42, 55 48, 50 50 C 45 48, 45 42, 50 35 Z"
            stroke="#7e6c53"
            stroke-width="0.8"
            fill="none"
            transform="rotate(180 50 50)"
        />
        <path
            d="M50 35 C 55 42, 55 48, 50 50 C 45 48, 45 42, 50 35 Z"
            stroke="#7e6c53"
            stroke-width="0.8"
            fill="none"
            transform="rotate(225 50 50)"
        />
        <path
            d="M50 35 C 55 42, 55 48, 50 50 C 45 48, 45 42, 50 35 Z"
            stroke="#7e6c53"
            stroke-width="0.8"
            fill="none"
            transform="rotate(270 50 50)"
        />
        <path
            d="M50 35 C 55 42, 55 48, 50 50 C 45 48, 45 42, 50 35 Z"
            stroke="#7e6c53"
            stroke-width="0.8"
            fill="none"
            transform="rotate(315 50 50)"
        />
        <circle cx="50" cy="50" r="4" fill="#7e6c53" />
    </g>
</svg>
