<?xml version="1.0" encoding="utf-8"?>
<!-- Generator: Adobe Adobe Illustrator 29.2.0, SVG Export Plug-In . SVG Version: 6.00 Build 0)  -->
<svg version="1.1" xmlns="http://www.w3.org/2000/svg" xmlns:xlink="http://www.w3.org/1999/xlink" x="0px" y="0px"
	 viewBox="0 0 687.7 716.99" style="enable-background:new 0 0 687.7 716.99;" xml:space="preserve">
<style type="text/css">
	.st0{fill:#B99B64;stroke:#B99B64;stroke-width:3;stroke-miterlimit:10;}
</style>
<g>
	<g>
		<g>
			<path class="st0" d="M601.51,425.14H86.49l1.54-2.01L344,88.95l0.99,1.29L601.51,425.14z M91.54,422.65h504.92L344,93.05
				L91.54,422.65z"/>
		</g>
		<g>
			<path class="st0" d="M536.98,491.03H150.19l193.39-298.97L536.98,491.03z M154.78,488.54H532.4L343.59,196.65L154.78,488.54z"/>
		</g>
		<g>
			<path class="st0" d="M484.58,557.38H203.12l140.73-232.84L484.58,557.38z M207.54,554.88h272.63L343.85,329.36L207.54,554.88z"/>
		</g>
		<g>
			<path class="st0" d="M343.59,628.5l-0.99-1.29L86.08,292.31H601.1L343.59,628.5z M91.13,294.8l252.46,329.6l252.46-329.6H91.13z"
				/>
		</g>
		<g>
			<path class="st0" d="M342.75,525.39L149.36,226.42h386.79L342.75,525.39z M153.94,228.91L342.75,520.8l188.81-291.89H153.94z"/>
		</g>
		<g>
			<path class="st0" d="M343.74,392.91L203,160.07h281.47L343.74,392.91z M207.42,162.57l136.31,225.52l136.31-225.52H207.42z"/>
		</g>
		<g>
			<path class="st0" d="M430.76,391.75H254.64l91.48-136.6L430.76,391.75z M259.31,389.25h166.97l-80.24-129.51L259.31,389.25z"/>
		</g>
		<g>
			<path class="st0" d="M341.33,459.4l-82.08-132.47h170.79L341.33,459.4z M263.73,329.42l77.68,125.37l83.96-125.37H263.73z"/>
		</g>
		<g>
			<path class="st0" d="M343.06,422.74l-41.33-66.7h85.99L343.06,422.74z M306.22,358.53l36.93,59.6l39.91-59.6H306.22z"/>
		</g>
		<path class="st0" d="M347.9,367.66c0,2.48-2.01,4.48-4.48,4.48c-2.48,0-4.48-2.01-4.48-4.48c0-2.48,2.01-4.48,4.48-4.48
			C345.89,363.18,347.9,365.18,347.9,367.66z"/>
		<g>
			<path class="st0" d="M343.85,628.72c-72.18,0-140.04-28.11-191.08-79.15c-51.04-51.04-79.15-118.9-79.15-191.08
				c0-72.18,28.11-140.04,79.15-191.08c51.04-51.04,118.9-79.15,191.08-79.15c72.18,0,140.04,28.11,191.08,79.15
				c51.04,51.04,79.15,118.9,79.15,191.08c0,72.18-28.11,140.04-79.15,191.08C483.89,600.61,416.03,628.72,343.85,628.72z
				 M343.85,93.26c-146.25,0-265.24,118.98-265.24,265.24c0,146.25,118.98,265.24,265.24,265.24
				c146.25,0,265.24-118.98,265.24-265.24C609.09,212.24,490.1,93.26,343.85,93.26z"/>
		</g>
	</g>
	<g>
		<g>
			<path class="st0" d="M458.84,116.73c-0.54-3.39-1.46-6.71-2.53-9.95c-1.07-3.25-2.32-6.43-3.76-9.52
				c-0.7-1.55-1.5-3.06-2.28-4.58l-1.24-2.23c-0.4-0.75-0.87-1.46-1.31-2.19l-0.66-1.09c-0.22-0.36-0.47-0.71-0.7-1.06l-1.42-2.12
				c-1.01-1.36-1.97-2.76-3.06-4.06c-2.07-2.68-4.39-5.16-6.75-7.57c-2.45-2.33-4.95-4.6-7.66-6.63
				c-5.36-4.1-11.18-7.58-17.32-10.36c-1.51-0.75-3.1-1.33-4.66-1.96l-1.17-0.47c-0.39-0.16-0.78-0.32-1.18-0.44l-2.4-0.81
				l-2.39-0.81l-2.44-0.69c-1.62-0.46-3.24-0.95-4.89-1.29l-4.97-1.14l-2.57-0.59c-0.43-0.1-0.86-0.19-1.28-0.31l-1.27-0.37
				l-2.54-0.74c-0.84-0.27-1.67-0.59-2.5-0.88c-1.68-0.55-3.29-1.3-4.93-1.99c-3.21-1.5-6.36-3.19-9.26-5.28l-1.1-0.76
				c-0.36-0.26-0.7-0.55-1.06-0.82c-0.7-0.56-1.41-1.09-2.09-1.67l-1.99-1.79l-0.5-0.45l-0.47-0.48l-0.94-0.96
				c-5.01-5.11-8.88-11.25-11.73-17.74h4.08c-2.85,6.49-6.72,12.63-11.73,17.75l-0.94,0.96l-0.47,0.48l-0.5,0.45l-1.99,1.79
				c-0.68,0.58-1.4,1.11-2.09,1.67c-0.35,0.27-0.7,0.56-1.06,0.82l-1.1,0.76c-2.9,2.08-6.05,3.78-9.26,5.28
				c-1.63,0.69-3.25,1.44-4.93,1.99c-0.83,0.29-1.66,0.61-2.5,0.88l-2.54,0.74l-1.27,0.37c-0.42,0.12-0.86,0.21-1.28,0.31
				l-2.57,0.59l-4.97,1.14c-1.66,0.34-3.27,0.83-4.89,1.29l-2.44,0.69l-2.39,0.82l-2.4,0.81c-0.4,0.13-0.79,0.29-1.18,0.44
				l-1.17,0.47c-1.56,0.63-3.15,1.22-4.66,1.96c-6.15,2.77-11.96,6.26-17.32,10.36c-2.7,2.02-5.21,4.29-7.66,6.63
				c-2.36,2.42-4.68,4.89-6.75,7.57c-1.09,1.3-2.05,2.7-3.06,4.06l-1.42,2.12c-0.23,0.36-0.48,0.7-0.7,1.06l-0.66,1.09
				c-0.43,0.73-0.91,1.44-1.31,2.19l-1.24,2.23c-0.77,1.51-1.57,3.02-2.28,4.58c-1.44,3.09-2.7,6.27-3.76,9.52
				c-1.07,3.25-1.99,6.56-2.54,9.95c0.71-6.84,2.61-13.55,5.17-19.96c0.63-1.61,1.35-3.19,2.07-4.76l1.16-2.32
				c0.37-0.78,0.82-1.53,1.23-2.29l0.63-1.14c0.21-0.38,0.44-0.74,0.67-1.12l1.35-2.23c0.97-1.44,1.89-2.92,2.95-4.3
				c8.15-11.3,19.4-20.32,31.99-26.37c1.55-0.81,3.17-1.46,4.78-2.16l1.21-0.52c0.4-0.17,0.8-0.35,1.22-0.49l2.46-0.9l2.47-0.89
				l2.51-0.75c1.67-0.5,3.34-1.03,5.04-1.41l5.05-1.24l2.44-0.6c0.4-0.11,0.82-0.19,1.22-0.31l1.2-0.37l2.39-0.74
				c0.79-0.27,1.56-0.58,2.34-0.87c1.58-0.54,3.07-1.27,4.59-1.94c2.97-1.46,5.9-3.03,8.57-4.98l1.02-0.71
				c0.33-0.24,0.65-0.51,0.97-0.76c0.64-0.52,1.3-1.01,1.92-1.55l1.83-1.66l0.46-0.42l0.43-0.44l0.86-0.89
				c4.6-4.73,8.13-10.42,10.78-16.49l2.04-4.69l2.04,4.69c2.64,6.07,6.18,11.76,10.78,16.49l0.86,0.89l0.43,0.44l0.46,0.42
				l1.83,1.66c0.63,0.54,1.28,1.03,1.92,1.55c0.32,0.25,0.64,0.52,0.97,0.76l1.02,0.71c2.67,1.94,5.59,3.52,8.57,4.98
				c1.52,0.67,3.01,1.39,4.59,1.94c0.78,0.29,1.55,0.6,2.34,0.87l2.39,0.74l1.2,0.37c0.4,0.12,0.81,0.21,1.22,0.31l2.44,0.6
				l5.05,1.24c1.7,0.38,3.37,0.91,5.04,1.41l2.51,0.75l2.46,0.89l2.46,0.9c0.41,0.14,0.81,0.32,1.22,0.49l1.21,0.52
				c1.6,0.69,3.23,1.34,4.78,2.16c12.59,6.05,23.84,15.07,31.99,26.37c1.06,1.38,1.97,2.86,2.95,4.3l1.35,2.23
				c0.22,0.37,0.46,0.74,0.67,1.12l0.63,1.14c0.41,0.77,0.86,1.51,1.23,2.29l1.16,2.32c0.73,1.57,1.44,3.15,2.07,4.76
				C456.23,103.18,458.14,109.89,458.84,116.73z"/>
			<path class="st0" d="M383.8,92.29c-2.13-0.26-4.23-0.69-6.32-1.2c-2.09-0.5-4.15-1.13-6.19-1.81c-4.07-1.42-8.05-3.17-11.79-5.4
				c-1.87-1.12-3.7-2.33-5.42-3.69c-1.72-1.37-3.34-2.87-4.86-4.49c-1.49-1.65-2.83-3.44-4.01-5.34c-1.15-1.92-2.08-3.97-2.83-6.09
				h2.95c-0.75,2.12-1.69,4.17-2.83,6.09c-1.18,1.9-2.52,3.69-4.01,5.34c-1.51,1.62-3.13,3.13-4.86,4.49
				c-1.72,1.36-3.55,2.58-5.42,3.69c-3.74,2.23-7.73,3.98-11.8,5.4c-2.05,0.68-4.1,1.31-6.19,1.81c-2.09,0.5-4.19,0.94-6.32,1.19
				c4.1-1.21,8.09-2.69,11.95-4.43c1.93-0.86,3.83-1.79,5.67-2.8c1.84-1.02,3.66-2.05,5.39-3.23c1.73-1.17,3.39-2.42,4.97-3.76
				c1.56-1.36,3.04-2.79,4.39-4.33c1.33-1.56,2.53-3.21,3.57-4.95c1.02-1.75,1.85-3.6,2.52-5.51l1.48-4.21l1.47,4.21
				c0.67,1.91,1.5,3.75,2.52,5.51c1.04,1.74,2.25,3.39,3.57,4.95c1.35,1.54,2.83,2.98,4.39,4.33c1.58,1.34,3.25,2.59,4.97,3.76
				c1.72,1.18,3.55,2.22,5.39,3.23c1.84,1.01,3.74,1.94,5.67,2.8C375.71,89.6,379.7,91.08,383.8,92.29z"/>
		</g>
		<g>
			<path class="st0" d="M294.78,95.31c-2.43-2.42-5.13-4.56-7.9-6.56c-2.77-2-5.66-3.84-8.64-5.49c-1.48-0.84-3.01-1.59-4.53-2.36
				l-2.32-1.07c-0.77-0.37-1.56-0.67-2.34-1l-1.18-0.49c-0.39-0.16-0.8-0.3-1.19-0.45L264.29,77c-1.62-0.51-3.22-1.08-4.86-1.49
				c-3.25-0.95-6.58-1.59-9.92-2.16c-3.35-0.45-6.71-0.81-10.09-0.86c-6.75-0.16-13.5,0.43-20.1,1.8c-1.66,0.28-3.29,0.74-4.92,1.15
				l-1.23,0.31c-0.41,0.1-0.82,0.2-1.22,0.34l-2.41,0.76l-2.41,0.75l-2.38,0.87c-1.58,0.58-3.18,1.13-4.72,1.83l-4.69,2l-2.43,1.03
				c-0.41,0.17-0.81,0.35-1.22,0.5l-1.24,0.45l-2.49,0.89c-0.84,0.27-1.69,0.5-2.54,0.76c-1.68,0.54-3.43,0.89-5.15,1.29
				c-3.48,0.67-7.02,1.16-10.59,1.17l-1.34,0.03c-0.45,0-0.89-0.03-1.34-0.04c-0.89-0.04-1.79-0.05-2.68-0.12l-2.67-0.28l-0.67-0.07
				l-0.66-0.11L159,87.58c-7.06-1.19-13.8-3.89-19.92-7.46l3.3-2.4c1.51,6.93,1.99,14.17,0.94,21.25l-0.2,1.33l-0.1,0.66l-0.14,0.66
				l-0.56,2.62c-0.21,0.87-0.48,1.72-0.71,2.58c-0.12,0.43-0.24,0.86-0.37,1.29l-0.45,1.26c-1.12,3.39-2.67,6.61-4.39,9.72
				c-0.91,1.52-1.78,3.07-2.82,4.5c-0.5,0.73-0.99,1.47-1.51,2.18l-1.62,2.09l-0.81,1.05c-0.27,0.35-0.57,0.67-0.86,1l-1.73,1.99
				l-3.35,3.84c-1.14,1.25-2.16,2.6-3.2,3.92l-1.56,1.99l-1.46,2.07l-1.47,2.06c-0.25,0.34-0.47,0.7-0.7,1.05l-0.67,1.07
				c-0.89,1.43-1.83,2.83-2.62,4.33c-3.34,5.85-6,12.09-7.93,18.56c-1,3.23-1.69,6.54-2.3,9.86c-0.49,3.34-0.92,6.71-1.01,10.1
				c-0.12,1.69-0.07,3.39-0.09,5.09l0.1,2.54c0.02,0.42,0.03,0.85,0.06,1.27l0.1,1.27c0.08,0.85,0.11,1.7,0.23,2.54l0.31,2.53
				c0.26,1.68,0.51,3.37,0.85,5.04c0.65,3.35,1.5,6.66,2.55,9.92c1.04,3.26,2.25,6.48,3.8,9.54c-3.45-5.95-5.85-12.5-7.55-19.19
				c-0.44-1.67-0.78-3.37-1.12-5.07l-0.43-2.56c-0.16-0.85-0.23-1.72-0.35-2.58l-0.16-1.29c-0.05-0.43-0.08-0.86-0.12-1.3l-0.21-2.6
				c-0.06-1.73-0.19-3.47-0.14-5.21c-0.05-13.94,3.76-27.85,10.38-40.14c0.78-1.57,1.71-3.05,2.6-4.55l0.67-1.13
				c0.22-0.38,0.44-0.75,0.7-1.11l1.46-2.17l1.47-2.17l1.58-2.08c1.06-1.39,2.09-2.8,3.25-4.11l3.36-3.97l1.62-1.92
				c0.27-0.32,0.55-0.63,0.8-0.97l0.75-1l1.5-2c0.48-0.68,0.92-1.39,1.39-2.08c0.96-1.37,1.74-2.83,2.58-4.26
				c1.54-2.93,2.99-5.92,4.01-9.06l0.41-1.17c0.13-0.39,0.22-0.79,0.34-1.19c0.21-0.8,0.45-1.58,0.65-2.39l0.5-2.42l0.12-0.6
				l0.09-0.61l0.17-1.22c0.94-6.53,0.46-13.21-0.97-19.67l-1.1-4.99l4.4,2.59c5.71,3.36,11.91,5.88,18.41,7.01l1.22,0.21l0.61,0.11
				l0.61,0.07l2.46,0.27c0.82,0.07,1.65,0.08,2.47,0.12c0.41,0.01,0.82,0.05,1.24,0.05l1.24-0.03c3.3,0.01,6.59-0.44,9.86-1.01
				c1.62-0.35,3.26-0.65,4.85-1.13c0.8-0.23,1.61-0.43,2.4-0.68l2.37-0.81l1.19-0.4c0.4-0.13,0.78-0.31,1.17-0.46l2.33-0.95
				l4.81-1.97c1.6-0.7,3.26-1.24,4.91-1.82l2.47-0.86l2.52-0.73l2.52-0.72c0.42-0.13,0.84-0.22,1.27-0.32l1.28-0.29
				c1.71-0.38,3.4-0.81,5.13-1.06c13.74-2.5,28.14-1.82,41.38,2.53c1.67,0.5,3.28,1.16,4.91,1.75l2.4,1.01
				c0.4,0.17,0.8,0.33,1.2,0.51l1.18,0.55c0.78,0.38,1.58,0.72,2.34,1.13l2.31,1.2c1.51,0.85,3.02,1.7,4.48,2.63
				C284.7,85.89,290.18,90.19,294.78,95.31z"/>
			<path class="st0" d="M219.7,119.65c-1.87,1.04-3.83,1.92-5.81,2.74c-1.99,0.82-4.02,1.53-6.07,2.18
				c-4.12,1.24-8.37,2.17-12.72,2.56c-2.17,0.2-4.36,0.29-6.55,0.2c-2.2-0.09-4.39-0.35-6.57-0.78c-2.17-0.46-4.31-1.12-6.38-1.96
				c-2.06-0.88-4.02-1.99-5.87-3.26l2.39-1.73c0.64,2.16,1.08,4.36,1.29,6.59c0.16,2.23,0.13,4.47-0.11,6.67
				c-0.27,2.2-0.7,4.37-1.29,6.49c-0.59,2.12-1.35,4.17-2.21,6.17c-1.72,4.01-3.91,7.76-6.37,11.3c-1.25,1.75-2.55,3.47-3.95,5.1
				c-1.39,1.63-2.84,3.22-4.41,4.68c2.6-3.39,4.96-6.93,7.07-10.6c1.06-1.83,2.05-3.7,2.94-5.6c0.89-1.9,1.76-3.82,2.46-5.78
				c0.71-1.96,1.32-3.95,1.81-5.96c0.46-2.02,0.82-4.05,1.01-6.09c0.16-2.04,0.16-4.08-0.02-6.1c-0.2-2.02-0.62-4-1.2-5.94
				l-1.28-4.27l3.66,2.54c1.66,1.15,3.42,2.15,5.28,2.97c1.87,0.8,3.81,1.42,5.8,1.9c2,0.45,4.04,0.74,6.1,0.92
				c2.06,0.15,4.15,0.18,6.23,0.12c2.09-0.06,4.17-0.29,6.26-0.55c2.09-0.27,4.17-0.63,6.23-1.07
				C211.57,122.23,215.67,121.08,219.7,119.65z"/>
		</g>
		<g>
			<path class="st0" d="M149.45,174.42c-3.39-0.53-6.83-0.68-10.25-0.67c-3.42,0.01-6.84,0.22-10.22,0.64
				c-1.69,0.19-3.37,0.48-5.05,0.75l-2.5,0.49c-0.84,0.15-1.66,0.38-2.49,0.57l-1.24,0.29c-0.41,0.1-0.82,0.23-1.23,0.34l-2.45,0.69
				c-1.61,0.54-3.24,1.02-4.81,1.65c-3.19,1.14-6.26,2.58-9.29,4.08c-2.97,1.61-5.91,3.29-8.67,5.23
				c-5.55,3.83-10.67,8.29-15.2,13.27c-1.18,1.21-2.22,2.53-3.31,3.82l-0.81,0.97c-0.27,0.32-0.54,0.64-0.79,0.99l-1.51,2.03
				l-1.51,2.03l-1.41,2.1c-0.94,1.4-1.91,2.78-2.74,4.26l-2.62,4.38L60,224.61c-0.23,0.37-0.44,0.76-0.69,1.12l-0.74,1.09
				l-1.49,2.19c-0.52,0.72-1.07,1.4-1.61,2.11c-1.04,1.43-2.25,2.73-3.41,4.07c-2.42,2.59-5,5.06-7.88,7.18l-1.06,0.81
				c-0.36,0.26-0.74,0.5-1.11,0.75c-0.75,0.49-1.48,1.01-2.24,1.47l-2.32,1.34l-0.58,0.33l-0.6,0.3l-1.2,0.6
				c-6.41,3.19-13.44,4.97-20.5,5.68l1.26-3.88c5.3,4.72,9.94,10.29,13.25,16.64l0.62,1.19l0.31,0.59l0.27,0.61l1.09,2.45
				c0.34,0.83,0.63,1.67,0.94,2.51c0.15,0.42,0.32,0.84,0.45,1.26l0.38,1.28c1.08,3.4,1.73,6.92,2.16,10.44
				c0.15,1.77,0.36,3.53,0.37,5.3c0.02,0.88,0.07,1.77,0.06,2.65l-0.08,2.64l-0.04,1.32c-0.01,0.44-0.07,0.88-0.1,1.32l-0.23,2.63
				l-0.45,5.08c-0.19,1.68-0.22,3.37-0.28,5.05l-0.1,2.53l0.04,2.53l0.03,2.53c-0.01,0.42,0.03,0.84,0.06,1.26l0.08,1.26
				c0.12,1.68,0.18,3.37,0.43,5.04c0.74,6.7,2.25,13.31,4.5,19.67c1.09,3.2,2.47,6.28,3.93,9.33c1.57,2.99,3.2,5.96,5.12,8.76
				c0.9,1.44,1.94,2.78,2.92,4.17l1.57,2c0.27,0.33,0.52,0.67,0.8,1l0.83,0.97c0.56,0.64,1.09,1.31,1.68,1.92l1.74,1.87
				c1.2,1.2,2.39,2.43,3.65,3.58c2.5,2.32,5.13,4.5,7.89,6.52c2.76,2.02,5.62,3.92,8.68,5.49c-6.29-2.79-12.08-6.67-17.39-11.09
				c-1.34-1.1-2.61-2.27-3.88-3.44l-1.85-1.82c-0.63-0.6-1.2-1.25-1.8-1.88l-0.89-0.95c-0.3-0.32-0.57-0.65-0.86-0.98l-1.7-1.97
				c-1.07-1.37-2.19-2.7-3.18-4.13c-8.23-11.24-13.33-24.73-15.2-38.58c-0.29-1.73-0.41-3.47-0.57-5.21l-0.12-1.31
				c-0.04-0.44-0.08-0.87-0.09-1.31l-0.1-2.62l-0.08-2.62l0.06-2.62c0.04-1.75,0.05-3.49,0.21-5.23l0.38-5.19l0.18-2.5
				c0.02-0.42,0.07-0.83,0.08-1.25l0.02-1.25l0.04-2.5c-0.01-0.83-0.07-1.66-0.1-2.5c-0.03-1.67-0.26-3.31-0.42-4.97
				c-0.47-3.28-1.06-6.55-2.09-9.69l-0.36-1.18c-0.13-0.39-0.29-0.77-0.43-1.16c-0.3-0.77-0.56-1.55-0.88-2.31l-1.01-2.25
				l-0.26-0.56l-0.29-0.55l-0.58-1.09c-3.08-5.83-7.39-10.95-12.35-15.35l-3.83-3.39l5.09-0.49c6.59-0.63,13.1-2.24,19.01-5.15
				l1.11-0.54l0.55-0.27l0.54-0.3l2.14-1.23c0.7-0.43,1.38-0.9,2.07-1.35c0.34-0.23,0.69-0.45,1.03-0.69l0.98-0.75
				c2.67-1.94,5.07-4.23,7.38-6.61c1.11-1.24,2.26-2.44,3.26-3.77c0.51-0.65,1.05-1.29,1.55-1.96l1.44-2.05l0.72-1.02
				c0.24-0.34,0.45-0.71,0.67-1.06l1.33-2.13l2.74-4.42c0.89-1.5,1.91-2.92,2.9-4.36l1.49-2.15l1.61-2.07l1.62-2.06
				c0.26-0.35,0.55-0.68,0.84-1l0.86-0.99c1.15-1.31,2.27-2.65,3.53-3.88c9.65-10.1,21.7-18.02,34.97-22.28
				c1.64-0.58,3.33-0.99,5-1.47l2.53-0.6c0.42-0.1,0.84-0.2,1.27-0.29l1.28-0.24c0.85-0.15,1.7-0.35,2.56-0.46l2.57-0.39
				c1.72-0.2,3.44-0.4,5.17-0.5C135.76,172.72,142.73,172.98,149.45,174.42z"/>
			<path class="st0" d="M103.02,238.24c-0.9,1.94-1.97,3.81-3.09,5.64c-1.12,1.83-2.35,3.6-3.64,5.33c-2.61,3.43-5.5,6.68-8.78,9.55
				c-1.64,1.43-3.36,2.8-5.19,4.01c-1.83,1.21-3.76,2.29-5.77,3.23c-2.03,0.91-4.14,1.63-6.31,2.16c-2.18,0.5-4.42,0.75-6.67,0.81
				l0.91-2.8c1.78,1.37,3.44,2.89,4.92,4.58c1.44,1.71,2.73,3.54,3.84,5.46c1.07,1.94,2,3.95,2.77,6.01
				c0.76,2.06,1.36,4.17,1.84,6.3c0.97,4.25,1.4,8.58,1.49,12.89c0.02,2.16-0.03,4.31-0.19,6.45c-0.17,2.14-0.4,4.28-0.82,6.38
				c0.11-4.27-0.06-8.53-0.52-12.73c-0.22-2.1-0.52-4.19-0.91-6.26c-0.4-2.06-0.82-4.12-1.41-6.12c-0.58-2-1.25-3.98-2.04-5.89
				c-0.81-1.9-1.72-3.76-2.76-5.52c-1.07-1.74-2.27-3.4-3.6-4.93c-1.35-1.51-2.85-2.87-4.46-4.1l-3.55-2.71l4.46-0.1
				c2.02-0.04,4.03-0.27,6.02-0.69c1.98-0.45,3.92-1.09,5.81-1.87c1.88-0.81,3.71-1.77,5.48-2.84c1.76-1.09,3.46-2.29,5.11-3.57
				c1.66-1.27,3.2-2.69,4.74-4.13c1.53-1.44,3-2.96,4.41-4.53C97.96,245.1,100.6,241.76,103.02,238.24z"/>
		</g>
		<g>
			<path class="st0" d="M78.38,323.84c-3.06,1.57-5.93,3.46-8.68,5.49c-2.76,2.02-5.4,4.2-7.89,6.52c-1.26,1.15-2.45,2.37-3.65,3.58
				l-1.74,1.87c-0.59,0.61-1.12,1.28-1.68,1.92l-0.83,0.97c-0.27,0.32-0.53,0.66-0.8,1l-1.57,2c-0.98,1.39-2.02,2.73-2.92,4.17
				c-1.91,2.8-3.55,5.77-5.12,8.76c-1.46,3.05-2.85,6.13-3.94,9.33c-2.24,6.36-3.76,12.97-4.5,19.67c-0.24,1.67-0.31,3.36-0.43,5.04
				l-0.08,1.26c-0.03,0.42-0.06,0.84-0.06,1.26l-0.03,2.53l-0.03,2.53l0.1,2.53c0.07,1.69,0.09,3.37,0.28,5.05l0.45,5.08l0.23,2.63
				c0.03,0.44,0.09,0.88,0.1,1.32l0.04,1.32l0.08,2.64c0,0.88-0.04,1.77-0.06,2.65c-0.01,1.77-0.22,3.53-0.37,5.3
				c-0.44,3.52-1.07,7.04-2.16,10.44l-0.38,1.28c-0.14,0.42-0.3,0.84-0.45,1.26c-0.31,0.84-0.6,1.68-0.94,2.51l-1.09,2.45L30,448.8
				l-0.31,0.59l-0.62,1.19c-3.31,6.35-7.96,11.92-13.25,16.64l-1.26-3.88c7.06,0.7,14.09,2.49,20.5,5.67l1.2,0.6l0.6,0.3l0.58,0.33
				l2.32,1.34c0.76,0.47,1.49,0.98,2.24,1.47c0.37,0.25,0.75,0.49,1.11,0.75l1.06,0.81c2.88,2.12,5.46,4.58,7.88,7.17
				c1.16,1.34,2.37,2.64,3.41,4.07c0.54,0.7,1.09,1.39,1.61,2.11l1.49,2.19l0.74,1.09c0.25,0.36,0.46,0.75,0.69,1.12l1.36,2.26
				l2.62,4.38c0.83,1.47,1.8,2.85,2.74,4.26l1.41,2.1l1.51,2.02l1.51,2.03c0.24,0.34,0.52,0.67,0.79,0.99l0.81,0.97
				c1.08,1.29,2.13,2.62,3.31,3.82c4.54,4.99,9.65,9.44,15.2,13.27c2.76,1.95,5.69,3.63,8.67,5.23c3.03,1.5,6.1,2.94,9.29,4.08
				c1.57,0.63,3.2,1.11,4.81,1.65l2.45,0.69c0.41,0.11,0.82,0.24,1.23,0.34l1.24,0.29c0.83,0.19,1.65,0.42,2.49,0.57l2.5,0.49
				c1.68,0.27,3.36,0.56,5.05,0.75c3.38,0.41,6.8,0.63,10.22,0.64c3.42,0.02,6.85-0.13,10.25-0.66c-6.73,1.44-13.69,1.7-20.58,1.25
				c-1.73-0.1-3.45-0.3-5.17-0.5l-2.57-0.39c-0.86-0.11-1.7-0.31-2.56-0.46l-1.28-0.24c-0.43-0.08-0.85-0.19-1.27-0.29l-2.53-0.6
				c-1.67-0.48-3.36-0.9-5-1.47c-13.27-4.26-25.32-12.18-34.97-22.28c-1.25-1.22-2.37-2.57-3.53-3.88l-0.86-0.99
				c-0.29-0.33-0.58-0.66-0.84-1l-1.62-2.06l-1.61-2.07l-1.49-2.15c-0.99-1.44-2.02-2.85-2.9-4.36l-2.74-4.42l-1.33-2.13
				c-0.23-0.35-0.43-0.72-0.67-1.06l-0.72-1.02l-1.44-2.05c-0.5-0.67-1.03-1.31-1.55-1.96c-1-1.33-2.15-2.53-3.26-3.77
				c-2.31-2.37-4.7-4.68-7.38-6.61l-0.98-0.75c-0.33-0.24-0.69-0.46-1.03-0.69c-0.69-0.45-1.37-0.92-2.07-1.35l-2.14-1.23l-0.54-0.3
				l-0.55-0.27l-1.11-0.54c-5.92-2.91-12.42-4.52-19.01-5.16l-5.09-0.49l3.83-3.39c4.96-4.39,9.28-9.51,12.35-15.34l0.58-1.09
				l0.29-0.55l0.26-0.56l1.01-2.25c0.32-0.76,0.58-1.54,0.88-2.31c0.14-0.39,0.3-0.77,0.43-1.16l0.36-1.18
				c1.03-3.14,1.62-6.41,2.09-9.69c0.17-1.65,0.39-3.3,0.42-4.97c0.03-0.83,0.09-1.66,0.1-2.5l-0.04-2.5l-0.02-1.25
				c-0.01-0.42-0.05-0.83-0.08-1.25l-0.18-2.51l-0.38-5.19c-0.17-1.74-0.17-3.49-0.21-5.23l-0.06-2.62l0.09-2.62l0.09-2.62
				c0.01-0.44,0.05-0.87,0.09-1.31l0.12-1.31c0.16-1.74,0.28-3.48,0.57-5.21c1.87-13.84,6.96-27.33,15.19-38.57
				c0.99-1.43,2.11-2.76,3.18-4.13l1.7-1.97c0.29-0.33,0.56-0.66,0.86-0.98l0.89-0.95c0.6-0.62,1.17-1.28,1.8-1.88l1.85-1.82
				c1.27-1.18,2.55-2.35,3.88-3.44C66.31,330.51,72.09,326.63,78.38,323.84z"/>
			<path class="st0" d="M78.33,402.76c0.41,2.1,0.65,4.24,0.81,6.38c0.17,2.14,0.21,4.29,0.19,6.45c-0.09,4.31-0.52,8.64-1.49,12.89
				c-0.48,2.12-1.07,4.23-1.84,6.29c-0.77,2.06-1.69,4.07-2.77,6.01c-1.11,1.92-2.4,3.75-3.84,5.46c-1.47,1.69-3.14,3.21-4.92,4.58
				l-0.91-2.8c2.25,0.06,4.48,0.32,6.67,0.81c2.17,0.54,4.29,1.26,6.31,2.16c2.01,0.94,3.94,2.02,5.77,3.23
				c1.83,1.22,3.55,2.58,5.19,4.01c3.28,2.87,6.17,6.12,8.78,9.55c1.28,1.73,2.51,3.5,3.63,5.33c1.12,1.83,2.19,3.7,3.09,5.64
				c-2.42-3.52-5.06-6.86-7.9-10c-1.41-1.57-2.88-3.09-4.41-4.53c-1.54-1.44-3.09-2.85-4.74-4.13c-1.65-1.28-3.35-2.48-5.11-3.57
				c-1.77-1.06-3.6-2.03-5.48-2.84c-1.89-0.78-3.83-1.42-5.81-1.87c-1.98-0.43-4-0.65-6.02-0.7l-4.46-0.1l3.55-2.7
				c1.61-1.22,3.11-2.59,4.46-4.1c1.34-1.53,2.53-3.18,3.6-4.93c1.05-1.76,1.96-3.61,2.76-5.52c0.78-1.92,1.46-3.89,2.04-5.89
				c0.59-2,1.01-4.06,1.41-6.12c0.39-2.07,0.69-4.16,0.91-6.26C78.27,411.29,78.44,407.04,78.33,402.76z"/>
		</g>
		<g>
			<path class="st0" d="M108.71,486.49c-1.55,3.06-2.76,6.29-3.8,9.54c-1.05,3.26-1.9,6.57-2.55,9.92
				c-0.34,1.67-0.58,3.36-0.85,5.04l-0.31,2.53c-0.12,0.84-0.15,1.69-0.23,2.54l-0.1,1.27c-0.03,0.42-0.04,0.85-0.06,1.27l-0.1,2.54
				c0.02,1.7-0.03,3.39,0.09,5.09c0.1,3.39,0.52,6.75,1.01,10.1c0.61,3.33,1.3,6.64,2.3,9.86c1.93,6.47,4.58,12.7,7.93,18.56
				c0.78,1.49,1.72,2.9,2.62,4.33l0.67,1.07c0.22,0.36,0.44,0.72,0.7,1.05l1.47,2.06l1.46,2.06l1.56,1.99
				c1.04,1.33,2.06,2.67,3.2,3.92l3.35,3.84l1.73,1.99c0.28,0.34,0.59,0.66,0.86,1l0.81,1.05l1.62,2.09c0.52,0.71,1,1.45,1.51,2.18
				c1.03,1.43,1.9,2.99,2.82,4.5c1.72,3.1,3.27,6.32,4.39,9.71l0.45,1.26c0.14,0.42,0.25,0.86,0.37,1.29
				c0.24,0.86,0.5,1.71,0.71,2.58l0.56,2.62l0.14,0.66l0.1,0.66l0.2,1.33c1.05,7.08,0.57,14.32-0.94,21.25l-3.3-2.4
				c6.12-3.58,12.86-6.27,19.92-7.46l1.32-0.22l0.66-0.11l0.67-0.07l2.67-0.28c0.89-0.07,1.78-0.08,2.68-0.12
				c0.45-0.01,0.89-0.04,1.34-0.04l1.34,0.03c3.57,0.02,7.11,0.5,10.6,1.17c1.73,0.4,3.47,0.75,5.15,1.29
				c0.85,0.25,1.7,0.48,2.54,0.76l2.49,0.89l1.24,0.45c0.41,0.15,0.81,0.34,1.22,0.5l2.43,1.03l4.69,2c1.54,0.7,3.14,1.25,4.72,1.83
				l2.38,0.87l2.42,0.75l2.41,0.76c0.4,0.14,0.81,0.24,1.22,0.34l1.23,0.31c1.63,0.41,3.26,0.87,4.92,1.15
				c6.6,1.37,13.35,1.97,20.1,1.8c3.38-0.05,6.74-0.41,10.09-0.86c3.33-0.57,6.66-1.2,9.91-2.16c1.65-0.41,3.24-0.98,4.86-1.49
				l2.39-0.88c0.4-0.15,0.8-0.29,1.19-0.45l1.18-0.49c0.78-0.34,1.58-0.63,2.34-1l2.32-1.07c1.52-0.77,3.05-1.52,4.53-2.36
				c2.98-1.65,5.87-3.49,8.64-5.49c2.77-2,5.47-4.14,7.9-6.56c-4.59,5.12-10.08,9.42-15.92,13.11c-1.46,0.93-2.96,1.78-4.48,2.63
				l-2.31,1.2c-0.76,0.41-1.56,0.75-2.34,1.13l-1.18,0.55c-0.39,0.18-0.8,0.34-1.2,0.51l-2.4,1.01c-1.63,0.59-3.24,1.25-4.91,1.75
				c-13.24,4.35-27.64,5.03-41.39,2.53c-1.73-0.25-3.43-0.68-5.13-1.06l-1.28-0.29c-0.43-0.1-0.85-0.19-1.27-0.32l-2.52-0.72
				l-2.52-0.73l-2.47-0.86c-1.65-0.58-3.31-1.12-4.91-1.82l-4.81-1.97l-2.33-0.95c-0.39-0.15-0.77-0.33-1.17-0.46l-1.19-0.4
				l-2.37-0.81c-0.8-0.25-1.6-0.45-2.4-0.68c-1.59-0.49-3.23-0.78-4.85-1.13c-3.26-0.56-6.55-1.02-9.86-1.01l-1.24-0.03
				c-0.41,0-0.82,0.03-1.24,0.05c-0.82,0.04-1.65,0.06-2.47,0.12l-2.46,0.27l-0.61,0.07l-0.61,0.11l-1.22,0.21
				c-6.5,1.12-12.7,3.65-18.41,7l-4.41,2.59l1.11-4.99c1.43-6.47,1.91-13.15,0.97-19.67l-0.17-1.22l-0.09-0.61l-0.12-0.6l-0.5-2.42
				c-0.19-0.8-0.43-1.59-0.65-2.39c-0.11-0.4-0.21-0.8-0.34-1.19l-0.41-1.17c-1.02-3.14-2.46-6.13-4-9.06
				c-0.84-1.43-1.62-2.9-2.58-4.27c-0.46-0.69-0.91-1.4-1.39-2.08l-1.5-2l-0.75-1c-0.25-0.33-0.53-0.64-0.8-0.97l-1.62-1.92
				l-3.36-3.97c-1.16-1.31-2.19-2.72-3.25-4.11l-1.58-2.08l-1.47-2.17l-1.46-2.17c-0.25-0.36-0.47-0.73-0.7-1.11l-0.67-1.13
				c-0.89-1.5-1.82-2.98-2.6-4.55c-6.63-12.3-10.43-26.2-10.38-40.14c-0.04-1.74,0.09-3.48,0.14-5.21l0.21-2.6
				c0.04-0.43,0.07-0.87,0.12-1.3l0.16-1.29c0.12-0.86,0.19-1.72,0.35-2.58l0.43-2.56c0.34-1.7,0.68-3.39,1.12-5.07
				C102.87,498.99,105.26,492.45,108.71,486.49z"/>
			<path class="st0" d="M155.06,550.38c1.57,1.46,3.01,3.05,4.41,4.68c1.39,1.63,2.69,3.35,3.95,5.1c2.46,3.54,4.65,7.29,6.37,11.3
				c0.86,2,1.62,4.06,2.21,6.17c0.59,2.12,1.02,4.29,1.29,6.49c0.24,2.21,0.27,4.44,0.11,6.67c-0.2,2.23-0.65,4.44-1.29,6.59
				l-2.39-1.73c1.85-1.27,3.81-2.38,5.87-3.26c2.07-0.84,4.21-1.5,6.38-1.96c2.18-0.42,4.37-0.69,6.57-0.78
				c2.2-0.09,4.39,0,6.55,0.2c4.34,0.39,8.59,1.32,12.72,2.57c2.06,0.65,4.09,1.36,6.07,2.18c1.98,0.82,3.94,1.7,5.81,2.75
				c-4.03-1.43-8.13-2.58-12.27-3.44c-2.07-0.44-4.15-0.81-6.23-1.07c-2.09-0.26-4.17-0.49-6.26-0.55
				c-2.09-0.06-4.17-0.04-6.23,0.12c-2.06,0.18-4.1,0.47-6.1,0.92c-1.99,0.48-3.93,1.11-5.8,1.9c-1.86,0.82-3.62,1.82-5.28,2.97
				l-3.67,2.54l1.28-4.27c0.58-1.93,0.99-3.92,1.2-5.94c0.18-2.02,0.17-4.06,0.02-6.1c-0.19-2.04-0.54-4.07-1.01-6.09
				c-0.49-2.01-1.11-4-1.81-5.97c-0.7-1.97-1.57-3.88-2.46-5.78c-0.9-1.9-1.89-3.77-2.95-5.6
				C160.03,557.31,157.66,553.77,155.06,550.38z"/>
		</g>
		<g>
			<path class="st0" d="M228.86,600.26c0.54,3.39,1.46,6.71,2.53,9.95c1.07,3.25,2.32,6.43,3.76,9.52c0.7,1.55,1.5,3.06,2.28,4.58
				l1.24,2.23c0.4,0.75,0.87,1.46,1.31,2.19l0.66,1.09c0.22,0.36,0.47,0.71,0.7,1.06l1.42,2.12c1.01,1.36,1.97,2.76,3.06,4.06
				c2.07,2.68,4.39,5.16,6.75,7.57c2.45,2.33,4.95,4.6,7.66,6.63c5.36,4.1,11.18,7.58,17.32,10.36c1.51,0.75,3.1,1.33,4.66,1.96
				l1.17,0.47c0.39,0.16,0.78,0.32,1.18,0.44l2.4,0.81l2.39,0.81l2.44,0.69c1.62,0.46,3.24,0.95,4.89,1.29l4.97,1.14l2.57,0.59
				c0.43,0.1,0.86,0.19,1.28,0.31l1.27,0.37l2.54,0.74c0.84,0.27,1.67,0.59,2.5,0.88c1.68,0.55,3.29,1.3,4.93,1.99
				c3.21,1.5,6.36,3.19,9.26,5.28l1.1,0.76c0.36,0.26,0.7,0.55,1.06,0.82c0.7,0.56,1.41,1.09,2.09,1.67l1.99,1.79l0.5,0.45
				l0.47,0.48l0.94,0.96c5.01,5.11,8.88,11.25,11.73,17.74h-4.08c2.85-6.49,6.72-12.63,11.73-17.75l0.94-0.96l0.47-0.48l0.5-0.45
				l1.99-1.79c0.68-0.58,1.4-1.11,2.09-1.67c0.35-0.27,0.7-0.56,1.06-0.82l1.1-0.76c2.9-2.08,6.05-3.78,9.26-5.28
				c1.63-0.69,3.25-1.44,4.93-1.99c0.83-0.29,1.66-0.61,2.5-0.88l2.54-0.74l1.27-0.37c0.42-0.12,0.86-0.21,1.28-0.31l2.57-0.59
				l4.97-1.14c1.66-0.34,3.27-0.83,4.89-1.29l2.44-0.69l2.39-0.82l2.4-0.81c0.4-0.13,0.79-0.29,1.18-0.44l1.17-0.47
				c1.56-0.63,3.15-1.22,4.66-1.96c6.15-2.77,11.96-6.26,17.32-10.36c2.7-2.02,5.21-4.29,7.66-6.63c2.36-2.42,4.68-4.89,6.75-7.57
				c1.09-1.3,2.05-2.7,3.06-4.06l1.42-2.12c0.23-0.35,0.48-0.7,0.7-1.06l0.66-1.09c0.43-0.73,0.91-1.44,1.31-2.19l1.24-2.23
				c0.77-1.51,1.57-3.02,2.28-4.58c1.44-3.09,2.7-6.27,3.76-9.52c1.07-3.25,1.99-6.56,2.54-9.95c-0.71,6.84-2.61,13.55-5.17,19.96
				c-0.63,1.61-1.35,3.19-2.07,4.76l-1.16,2.32c-0.37,0.78-0.82,1.53-1.23,2.29l-0.63,1.14c-0.21,0.38-0.45,0.74-0.67,1.12
				l-1.35,2.23c-0.97,1.44-1.89,2.92-2.95,4.3c-8.15,11.3-19.4,20.32-31.99,26.37c-1.55,0.81-3.17,1.46-4.78,2.16l-1.21,0.52
				c-0.4,0.17-0.8,0.35-1.22,0.49l-2.46,0.9l-2.47,0.89l-2.51,0.75c-1.67,0.5-3.34,1.03-5.04,1.41l-5.05,1.24l-2.44,0.6
				c-0.4,0.11-0.82,0.19-1.21,0.31l-1.2,0.37l-2.39,0.74c-0.79,0.27-1.56,0.58-2.34,0.87c-1.58,0.54-3.07,1.27-4.59,1.94
				c-2.97,1.46-5.9,3.03-8.57,4.98l-1.02,0.71c-0.33,0.24-0.65,0.51-0.97,0.76c-0.64,0.52-1.3,1.01-1.92,1.55l-1.83,1.66l-0.46,0.42
				l-0.43,0.44l-0.86,0.89c-4.6,4.73-8.13,10.42-10.78,16.49l-2.04,4.69l-2.04-4.69c-2.64-6.07-6.18-11.76-10.78-16.49l-0.86-0.89
				l-0.43-0.44l-0.46-0.42l-1.83-1.66c-0.63-0.54-1.28-1.03-1.92-1.55c-0.32-0.25-0.64-0.52-0.97-0.76l-1.02-0.71
				c-2.67-1.95-5.59-3.52-8.57-4.98c-1.52-0.67-3.01-1.39-4.59-1.94c-0.78-0.29-1.55-0.6-2.34-0.87l-2.39-0.74l-1.2-0.37
				c-0.4-0.12-0.81-0.21-1.22-0.31l-2.44-0.6l-5.05-1.24c-1.7-0.38-3.37-0.91-5.04-1.41l-2.51-0.75l-2.46-0.89l-2.46-0.9
				c-0.41-0.14-0.81-0.32-1.22-0.49l-1.21-0.52c-1.6-0.69-3.23-1.34-4.78-2.16c-12.59-6.05-23.84-15.07-31.99-26.37
				c-1.06-1.38-1.97-2.86-2.95-4.3l-1.35-2.23c-0.22-0.37-0.46-0.74-0.67-1.12l-0.63-1.14c-0.41-0.77-0.86-1.51-1.23-2.29
				l-1.16-2.32c-0.73-1.57-1.44-3.15-2.07-4.76C231.47,613.8,229.56,607.1,228.86,600.26z"/>
			<path class="st0" d="M303.9,624.7c2.13,0.26,4.23,0.69,6.32,1.2c2.09,0.5,4.15,1.13,6.19,1.81c4.07,1.42,8.05,3.17,11.8,5.4
				c1.87,1.12,3.7,2.33,5.42,3.69c1.72,1.37,3.34,2.87,4.86,4.49c1.49,1.65,2.83,3.44,4.01,5.34c1.15,1.92,2.08,3.97,2.83,6.09
				h-2.95c0.75-2.12,1.69-4.17,2.83-6.09c1.18-1.9,2.52-3.69,4.01-5.34c1.51-1.62,3.13-3.13,4.86-4.49
				c1.72-1.36,3.55-2.58,5.42-3.69c3.74-2.23,7.73-3.98,11.8-5.4c2.05-0.68,4.1-1.31,6.19-1.81c2.09-0.5,4.19-0.94,6.32-1.19
				c-4.1,1.21-8.09,2.69-11.95,4.43c-1.93,0.86-3.83,1.79-5.67,2.8c-1.84,1.02-3.66,2.05-5.39,3.23c-1.73,1.17-3.39,2.42-4.97,3.76
				c-1.56,1.36-3.04,2.79-4.39,4.33c-1.33,1.56-2.53,3.21-3.57,4.95c-1.02,1.75-1.85,3.6-2.52,5.51l-1.48,4.21l-1.47-4.21
				c-0.67-1.91-1.5-3.75-2.52-5.51c-1.04-1.74-2.25-3.39-3.57-4.95c-1.35-1.54-2.83-2.98-4.39-4.33c-1.58-1.34-3.25-2.59-4.97-3.76
				c-1.72-1.18-3.55-2.22-5.39-3.23c-1.84-1.01-3.74-1.94-5.67-2.8C311.99,627.39,308,625.91,303.9,624.7z"/>
		</g>
		<g>
			<path class="st0" d="M392.92,621.68c2.43,2.42,5.13,4.56,7.9,6.56c2.77,2,5.66,3.84,8.64,5.49c1.48,0.84,3.01,1.59,4.53,2.36
				l2.32,1.07c0.77,0.37,1.56,0.67,2.34,1l1.18,0.49c0.39,0.16,0.8,0.3,1.19,0.45l2.39,0.88c1.62,0.51,3.22,1.08,4.86,1.49
				c3.25,0.95,6.58,1.59,9.92,2.16c3.35,0.45,6.71,0.81,10.09,0.86c6.75,0.16,13.5-0.43,20.1-1.8c1.66-0.28,3.29-0.74,4.92-1.15
				l1.23-0.31c0.41-0.1,0.82-0.2,1.22-0.34l2.41-0.76l2.41-0.75l2.38-0.87c1.58-0.58,3.18-1.13,4.72-1.83l4.69-2l2.43-1.03
				c0.41-0.17,0.81-0.35,1.22-0.5l1.24-0.45l2.49-0.89c0.84-0.27,1.69-0.5,2.54-0.76c1.68-0.54,3.43-0.89,5.15-1.29
				c3.48-0.67,7.02-1.16,10.59-1.17l1.34-0.03c0.45,0,0.89,0.03,1.34,0.04c0.89,0.04,1.79,0.05,2.67,0.12l2.67,0.28l0.67,0.07
				l0.66,0.11l1.32,0.22c7.06,1.19,13.8,3.89,19.92,7.46l-3.3,2.4c-1.51-6.93-1.99-14.17-0.94-21.25l0.2-1.33l0.1-0.66l0.14-0.66
				l0.56-2.62c0.21-0.87,0.47-1.72,0.71-2.58c0.12-0.43,0.24-0.86,0.37-1.29l0.45-1.26c1.12-3.39,2.67-6.61,4.39-9.72
				c0.91-1.52,1.78-3.07,2.82-4.5c0.5-0.73,0.99-1.47,1.51-2.18l1.62-2.09l0.81-1.05c0.27-0.35,0.57-0.67,0.86-1l1.73-1.99
				l3.35-3.84c1.14-1.25,2.16-2.6,3.2-3.92l1.56-1.99l1.46-2.07l1.47-2.06c0.25-0.34,0.47-0.7,0.7-1.05l0.67-1.07
				c0.89-1.43,1.83-2.83,2.62-4.33c3.34-5.85,6-12.09,7.93-18.56c1-3.23,1.69-6.54,2.3-9.86c0.49-3.34,0.92-6.71,1.01-10.1
				c0.12-1.69,0.07-3.39,0.09-5.09l-0.1-2.54c-0.02-0.42-0.03-0.85-0.06-1.27l-0.1-1.27c-0.08-0.85-0.11-1.7-0.23-2.54l-0.31-2.53
				c-0.26-1.68-0.51-3.37-0.85-5.04c-0.65-3.35-1.5-6.66-2.55-9.92c-1.04-3.26-2.25-6.48-3.8-9.54c3.45,5.95,5.85,12.5,7.55,19.19
				c0.44,1.67,0.78,3.37,1.12,5.07l0.43,2.56c0.16,0.85,0.23,1.72,0.35,2.58l0.16,1.29c0.05,0.43,0.08,0.86,0.12,1.3l0.21,2.6
				c0.06,1.73,0.19,3.47,0.14,5.21c0.05,13.94-3.76,27.85-10.38,40.14c-0.78,1.57-1.71,3.05-2.6,4.55l-0.67,1.13
				c-0.22,0.38-0.44,0.75-0.7,1.11l-1.46,2.17l-1.47,2.17l-1.59,2.08c-1.06,1.39-2.09,2.8-3.25,4.11l-3.36,3.97l-1.62,1.92
				c-0.27,0.32-0.55,0.63-0.8,0.97l-0.75,1l-1.5,2c-0.48,0.68-0.92,1.39-1.39,2.08c-0.96,1.37-1.74,2.83-2.58,4.26
				c-1.54,2.93-2.99,5.92-4.01,9.06l-0.41,1.17c-0.13,0.39-0.22,0.79-0.34,1.19c-0.21,0.8-0.45,1.58-0.65,2.39l-0.5,2.42l-0.12,0.6
				l-0.09,0.61l-0.17,1.22c-0.94,6.53-0.46,13.21,0.97,19.67l1.1,4.99l-4.4-2.59c-5.71-3.36-11.91-5.88-18.41-7.01l-1.22-0.21
				l-0.61-0.11l-0.61-0.07l-2.46-0.27c-0.82-0.07-1.65-0.08-2.47-0.12c-0.41-0.01-0.82-0.05-1.24-0.05l-1.24,0.03
				c-3.3-0.01-6.59,0.44-9.86,1.01c-1.62,0.35-3.26,0.65-4.85,1.13c-0.8,0.23-1.61,0.43-2.4,0.68l-2.37,0.81l-1.19,0.4
				c-0.4,0.13-0.78,0.31-1.17,0.46l-2.33,0.95l-4.81,1.97c-1.6,0.7-3.26,1.24-4.91,1.82l-2.47,0.86l-2.52,0.73l-2.52,0.72
				c-0.42,0.13-0.84,0.22-1.27,0.32l-1.28,0.29c-1.71,0.38-3.4,0.81-5.13,1.06c-13.74,2.5-28.14,1.82-41.38-2.53
				c-1.67-0.5-3.28-1.16-4.91-1.75l-2.4-1.01c-0.4-0.17-0.8-0.33-1.2-0.51l-1.18-0.55c-0.78-0.38-1.58-0.72-2.34-1.13l-2.31-1.2
				c-1.51-0.85-3.02-1.7-4.48-2.63C403,631.1,397.52,626.8,392.92,621.68z"/>
			<path class="st0" d="M468,597.34c1.87-1.04,3.83-1.92,5.81-2.74c1.99-0.82,4.02-1.53,6.07-2.18c4.12-1.24,8.37-2.17,12.72-2.56
				c2.17-0.2,4.36-0.29,6.55-0.2c2.2,0.09,4.39,0.35,6.57,0.78c2.17,0.46,4.31,1.12,6.38,1.96c2.06,0.88,4.02,1.99,5.87,3.26
				l-2.39,1.73c-0.64-2.16-1.08-4.36-1.29-6.59c-0.16-2.23-0.13-4.47,0.11-6.67c0.27-2.2,0.7-4.37,1.29-6.49
				c0.59-2.12,1.35-4.17,2.21-6.17c1.72-4.01,3.91-7.76,6.37-11.3c1.25-1.75,2.55-3.47,3.95-5.1c1.39-1.63,2.84-3.22,4.41-4.68
				c-2.6,3.39-4.97,6.93-7.07,10.6c-1.06,1.83-2.05,3.7-2.94,5.6c-0.89,1.9-1.76,3.82-2.46,5.78c-0.71,1.96-1.32,3.95-1.81,5.96
				c-0.46,2.02-0.82,4.05-1.01,6.09c-0.16,2.04-0.16,4.08,0.02,6.1c0.2,2.02,0.62,4,1.2,5.94l1.28,4.27l-3.66-2.54
				c-1.66-1.15-3.42-2.15-5.28-2.97c-1.87-0.8-3.81-1.42-5.8-1.9c-2-0.45-4.04-0.74-6.1-0.92c-2.06-0.15-4.15-0.18-6.23-0.12
				c-2.09,0.06-4.17,0.29-6.26,0.55c-2.09,0.27-4.17,0.63-6.23,1.07C476.13,594.76,472.03,595.91,468,597.34z"/>
		</g>
		<g>
			<path class="st0" d="M538.25,542.57c3.39,0.53,6.83,0.68,10.25,0.67c3.42-0.01,6.84-0.22,10.22-0.64
				c1.69-0.19,3.37-0.48,5.05-0.75l2.5-0.49c0.84-0.15,1.66-0.38,2.49-0.57l1.24-0.29c0.41-0.1,0.82-0.23,1.23-0.34l2.45-0.69
				c1.61-0.54,3.24-1.02,4.81-1.65c3.19-1.14,6.26-2.58,9.29-4.08c2.97-1.61,5.91-3.29,8.67-5.23c5.55-3.83,10.67-8.29,15.2-13.27
				c1.18-1.21,2.22-2.53,3.31-3.82l0.81-0.97c0.27-0.32,0.54-0.64,0.79-0.99l1.51-2.03l1.51-2.03l1.41-2.1
				c0.94-1.4,1.91-2.78,2.74-4.26l2.62-4.38l1.36-2.26c0.23-0.37,0.44-0.76,0.69-1.12l0.74-1.09l1.49-2.19
				c0.52-0.72,1.07-1.4,1.61-2.11c1.04-1.43,2.25-2.73,3.41-4.07c2.42-2.59,5-5.06,7.88-7.18l1.06-0.81
				c0.36-0.26,0.74-0.5,1.11-0.75c0.75-0.49,1.48-1.01,2.24-1.47l2.32-1.34l0.58-0.33l0.6-0.3l1.2-0.6
				c6.41-3.19,13.44-4.97,20.5-5.68l-1.26,3.88c-5.3-4.72-9.94-10.29-13.25-16.64l-0.62-1.19l-0.31-0.59l-0.27-0.61l-1.09-2.45
				c-0.34-0.83-0.63-1.67-0.94-2.51c-0.15-0.42-0.32-0.84-0.45-1.26l-0.38-1.28c-1.08-3.4-1.73-6.92-2.16-10.44
				c-0.15-1.77-0.36-3.53-0.37-5.3c-0.02-0.88-0.07-1.77-0.06-2.65l0.08-2.64l0.04-1.32c0.01-0.44,0.07-0.88,0.1-1.32l0.23-2.63
				l0.45-5.08c0.19-1.68,0.22-3.37,0.28-5.05l0.1-2.53l-0.04-2.53l-0.03-2.53c0.01-0.42-0.03-0.84-0.06-1.26l-0.08-1.26
				c-0.12-1.68-0.18-3.37-0.43-5.04c-0.74-6.7-2.25-13.31-4.5-19.67c-1.09-3.2-2.47-6.28-3.93-9.33c-1.57-2.99-3.2-5.96-5.12-8.76
				c-0.9-1.44-1.94-2.78-2.92-4.17l-1.57-2c-0.27-0.33-0.52-0.67-0.8-1l-0.83-0.97c-0.56-0.64-1.09-1.31-1.68-1.92l-1.74-1.87
				c-1.2-1.2-2.39-2.43-3.65-3.58c-2.5-2.32-5.13-4.51-7.89-6.52c-2.76-2.02-5.62-3.92-8.68-5.49c6.29,2.79,12.08,6.67,17.39,11.09
				c1.34,1.1,2.61,2.27,3.89,3.44l1.85,1.82c0.63,0.6,1.2,1.25,1.8,1.88l0.89,0.95c0.29,0.32,0.57,0.65,0.86,0.98l1.7,1.97
				c1.07,1.37,2.19,2.7,3.18,4.13c8.23,11.24,13.33,24.73,15.2,38.58c0.29,1.73,0.41,3.47,0.57,5.21l0.12,1.31
				c0.04,0.44,0.08,0.87,0.09,1.31l0.1,2.62l0.08,2.62l-0.06,2.62c-0.04,1.75-0.05,3.49-0.21,5.23l-0.38,5.19l-0.18,2.5
				c-0.02,0.42-0.07,0.83-0.08,1.25l-0.02,1.25l-0.04,2.5c0.01,0.83,0.07,1.66,0.1,2.5c0.03,1.67,0.26,3.31,0.42,4.97
				c0.47,3.28,1.06,6.55,2.09,9.69l0.36,1.18c0.13,0.39,0.29,0.77,0.43,1.16c0.3,0.77,0.56,1.55,0.88,2.31l1.01,2.25l0.26,0.56
				l0.29,0.55l0.58,1.09c3.08,5.83,7.39,10.95,12.35,15.35l3.83,3.39l-5.09,0.49c-6.59,0.63-13.1,2.24-19.01,5.15l-1.11,0.54
				l-0.55,0.27l-0.54,0.3l-2.14,1.23c-0.7,0.43-1.38,0.9-2.07,1.35c-0.34,0.23-0.69,0.45-1.03,0.69l-0.98,0.75
				c-2.67,1.94-5.07,4.23-7.38,6.61c-1.11,1.24-2.26,2.44-3.26,3.77c-0.51,0.65-1.05,1.29-1.55,1.96l-1.44,2.05l-0.72,1.02
				c-0.24,0.34-0.45,0.71-0.67,1.06l-1.33,2.13l-2.74,4.42c-0.89,1.5-1.91,2.92-2.9,4.36l-1.49,2.15l-1.61,2.07l-1.62,2.06
				c-0.26,0.35-0.55,0.68-0.84,1l-0.86,0.99c-1.15,1.31-2.27,2.65-3.53,3.88c-9.65,10.1-21.7,18.02-34.97,22.28
				c-1.64,0.58-3.33,0.99-5,1.47l-2.53,0.6c-0.42,0.1-0.84,0.2-1.27,0.29l-1.28,0.24c-0.85,0.15-1.7,0.35-2.56,0.46l-2.57,0.39
				c-1.72,0.2-3.44,0.4-5.17,0.5C551.94,544.27,544.97,544.01,538.25,542.57z"/>
			<path class="st0" d="M584.68,478.75c0.9-1.94,1.97-3.81,3.09-5.64c1.12-1.83,2.35-3.6,3.64-5.33c2.61-3.43,5.5-6.68,8.78-9.55
				c1.64-1.43,3.36-2.8,5.19-4.01c1.83-1.21,3.76-2.29,5.77-3.23c2.03-0.91,4.14-1.63,6.31-2.16c2.18-0.5,4.42-0.75,6.67-0.81
				l-0.91,2.8c-1.78-1.37-3.44-2.89-4.92-4.58c-1.44-1.71-2.73-3.54-3.84-5.46c-1.07-1.94-2-3.95-2.77-6.01
				c-0.76-2.06-1.36-4.17-1.84-6.3c-0.97-4.25-1.4-8.58-1.49-12.89c-0.02-2.16,0.03-4.31,0.19-6.45c0.17-2.14,0.4-4.28,0.82-6.38
				c-0.11,4.27,0.06,8.53,0.52,12.73c0.22,2.1,0.52,4.19,0.91,6.26c0.4,2.06,0.82,4.12,1.41,6.12c0.58,2,1.25,3.98,2.04,5.89
				c0.81,1.9,1.72,3.76,2.76,5.52c1.07,1.74,2.27,3.4,3.6,4.93c1.35,1.51,2.85,2.87,4.46,4.1l3.55,2.71l-4.46,0.1
				c-2.02,0.04-4.03,0.27-6.02,0.69c-1.98,0.45-3.92,1.09-5.81,1.87c-1.88,0.81-3.71,1.77-5.48,2.84c-1.76,1.09-3.46,2.29-5.11,3.57
				c-1.66,1.27-3.2,2.69-4.74,4.13c-1.53,1.44-3,2.96-4.41,4.53C589.74,471.88,587.1,475.23,584.68,478.75z"/>
		</g>
		<g>
			<path class="st0" d="M609.32,393.15c3.06-1.57,5.92-3.46,8.68-5.49c2.76-2.02,5.4-4.2,7.89-6.52c1.26-1.15,2.45-2.37,3.65-3.58
				l1.74-1.87c0.59-0.61,1.12-1.28,1.68-1.92l0.83-0.97c0.27-0.32,0.53-0.66,0.8-1l1.57-2c0.98-1.39,2.02-2.73,2.92-4.17
				c1.91-2.8,3.55-5.77,5.12-8.76c1.46-3.05,2.85-6.13,3.94-9.33c2.24-6.36,3.76-12.97,4.5-19.67c0.24-1.67,0.31-3.36,0.43-5.04
				l0.08-1.26c0.03-0.42,0.06-0.84,0.06-1.26l0.03-2.53l0.03-2.53l-0.1-2.53c-0.07-1.69-0.09-3.37-0.28-5.05l-0.45-5.08l-0.23-2.63
				c-0.03-0.44-0.09-0.88-0.1-1.32l-0.04-1.32l-0.08-2.64c0-0.88,0.04-1.77,0.06-2.65c0.01-1.77,0.22-3.53,0.37-5.3
				c0.44-3.52,1.07-7.04,2.16-10.44l0.38-1.28c0.14-0.42,0.3-0.84,0.45-1.26c0.31-0.84,0.6-1.68,0.94-2.51l1.09-2.45l0.27-0.61
				l0.31-0.59l0.62-1.19c3.31-6.35,7.96-11.92,13.25-16.64l1.26,3.88c-7.06-0.7-14.09-2.49-20.5-5.67l-1.2-0.6l-0.6-0.3l-0.58-0.33
				l-2.32-1.34c-0.76-0.47-1.49-0.98-2.24-1.47c-0.37-0.25-0.75-0.49-1.11-0.75l-1.06-0.81c-2.88-2.12-5.46-4.58-7.88-7.17
				c-1.16-1.34-2.37-2.64-3.41-4.07c-0.54-0.7-1.09-1.39-1.61-2.11l-1.49-2.19l-0.74-1.09c-0.25-0.36-0.46-0.75-0.69-1.12
				l-1.36-2.26l-2.62-4.38c-0.83-1.47-1.8-2.85-2.74-4.26l-1.41-2.1l-1.51-2.02l-1.51-2.03c-0.24-0.34-0.52-0.67-0.79-0.99
				l-0.81-0.97c-1.08-1.29-2.13-2.62-3.31-3.82c-4.54-4.99-9.65-9.44-15.2-13.27c-2.76-1.95-5.69-3.63-8.67-5.23
				c-3.03-1.5-6.1-2.94-9.29-4.08c-1.57-0.63-3.2-1.11-4.81-1.65l-2.45-0.69c-0.41-0.11-0.82-0.24-1.23-0.34l-1.24-0.29
				c-0.83-0.19-1.65-0.42-2.49-0.57l-2.5-0.49c-1.68-0.27-3.36-0.56-5.05-0.75c-3.38-0.41-6.8-0.63-10.22-0.64
				c-3.42-0.02-6.85,0.13-10.25,0.66c6.73-1.44,13.69-1.7,20.58-1.25c1.73,0.1,3.45,0.3,5.17,0.5l2.57,0.39
				c0.86,0.11,1.7,0.31,2.56,0.46l1.28,0.24c0.43,0.08,0.85,0.19,1.27,0.29l2.54,0.6c1.67,0.48,3.36,0.9,5,1.47
				c13.27,4.26,25.32,12.18,34.97,22.28c1.25,1.22,2.37,2.57,3.53,3.88l0.86,0.99c0.29,0.33,0.58,0.66,0.84,1l1.62,2.06l1.61,2.07
				l1.49,2.15c0.99,1.44,2.02,2.85,2.9,4.36l2.74,4.42l1.33,2.13c0.23,0.35,0.43,0.72,0.67,1.06l0.72,1.02l1.44,2.05
				c0.5,0.67,1.03,1.31,1.55,1.96c1,1.33,2.15,2.53,3.26,3.77c2.31,2.37,4.7,4.68,7.38,6.61l0.98,0.75
				c0.33,0.24,0.69,0.46,1.03,0.69c0.69,0.45,1.37,0.92,2.07,1.35l2.14,1.23l0.54,0.3l0.55,0.27l1.11,0.54
				c5.92,2.91,12.42,4.52,19.01,5.16l5.09,0.49l-3.83,3.39c-4.96,4.39-9.28,9.51-12.35,15.34l-0.58,1.09l-0.29,0.55l-0.26,0.56
				l-1.01,2.25c-0.32,0.76-0.58,1.54-0.88,2.31c-0.14,0.39-0.3,0.77-0.43,1.16l-0.36,1.18c-1.03,3.14-1.62,6.41-2.09,9.69
				c-0.17,1.65-0.39,3.3-0.42,4.97c-0.03,0.83-0.09,1.66-0.1,2.5l0.04,2.5l0.02,1.25c0.01,0.42,0.05,0.83,0.08,1.25l0.18,2.51
				l0.38,5.19c0.17,1.74,0.17,3.49,0.21,5.23l0.06,2.62l-0.09,2.62l-0.09,2.62c-0.01,0.44-0.05,0.87-0.09,1.31l-0.12,1.31
				c-0.16,1.74-0.28,3.48-0.57,5.21c-1.87,13.84-6.96,27.33-15.19,38.57c-0.99,1.43-2.11,2.76-3.18,4.13l-1.7,1.97
				c-0.29,0.33-0.56,0.66-0.86,0.98l-0.89,0.95c-0.6,0.62-1.17,1.28-1.8,1.88l-1.85,1.82c-1.27,1.18-2.55,2.35-3.88,3.44
				C621.39,386.48,615.61,390.36,609.32,393.15z"/>
			<path class="st0" d="M609.37,314.23c-0.41-2.1-0.65-4.24-0.81-6.38c-0.17-2.14-0.21-4.29-0.19-6.45
				c0.09-4.31,0.52-8.64,1.49-12.89c0.48-2.12,1.07-4.23,1.84-6.29c0.77-2.06,1.69-4.07,2.77-6.01c1.11-1.92,2.4-3.75,3.84-5.46
				c1.47-1.69,3.14-3.21,4.92-4.58l0.91,2.8c-2.25-0.06-4.48-0.32-6.67-0.81c-2.17-0.54-4.29-1.26-6.31-2.16
				c-2.01-0.94-3.94-2.02-5.77-3.23c-1.83-1.22-3.55-2.58-5.19-4.01c-3.28-2.87-6.17-6.12-8.78-9.55c-1.28-1.73-2.51-3.5-3.63-5.33
				c-1.12-1.83-2.19-3.7-3.09-5.64c2.42,3.52,5.06,6.86,7.9,10c1.41,1.57,2.88,3.09,4.41,4.53c1.54,1.44,3.09,2.85,4.74,4.13
				c1.65,1.28,3.35,2.48,5.11,3.57c1.77,1.06,3.6,2.03,5.48,2.84c1.89,0.78,3.83,1.42,5.81,1.87c1.98,0.43,4,0.65,6.02,0.7l4.46,0.1
				l-3.55,2.7c-1.61,1.22-3.11,2.59-4.46,4.1c-1.34,1.53-2.53,3.18-3.6,4.93c-1.05,1.76-1.96,3.61-2.76,5.52
				c-0.78,1.92-1.46,3.89-2.04,5.89c-0.59,2-1.01,4.06-1.41,6.12c-0.39,2.07-0.69,4.16-0.91,6.26
				C609.43,305.7,609.26,309.95,609.37,314.23z"/>
		</g>
		<g>
			<path class="st0" d="M578.99,230.5c1.55-3.06,2.76-6.29,3.8-9.54c1.05-3.26,1.9-6.57,2.55-9.92c0.34-1.67,0.58-3.36,0.85-5.04
				l0.31-2.53c0.12-0.84,0.15-1.69,0.23-2.54l0.1-1.27c0.03-0.42,0.04-0.85,0.06-1.27l0.1-2.54c-0.02-1.7,0.03-3.39-0.09-5.09
				c-0.1-3.39-0.52-6.75-1.01-10.1c-0.61-3.33-1.3-6.64-2.3-9.86c-1.93-6.47-4.58-12.7-7.93-18.56c-0.78-1.49-1.72-2.9-2.62-4.33
				l-0.67-1.07c-0.22-0.36-0.44-0.72-0.7-1.05l-1.46-2.06l-1.46-2.06l-1.56-1.99c-1.04-1.33-2.06-2.67-3.2-3.92l-3.35-3.84
				l-1.73-1.99c-0.28-0.34-0.59-0.66-0.86-1l-0.81-1.05l-1.62-2.09c-0.52-0.71-1-1.45-1.51-2.18c-1.03-1.43-1.9-2.99-2.82-4.5
				c-1.72-3.1-3.27-6.32-4.39-9.71l-0.45-1.26c-0.14-0.42-0.25-0.86-0.37-1.29c-0.24-0.86-0.5-1.71-0.71-2.58l-0.56-2.62l-0.14-0.66
				l-0.1-0.66l-0.2-1.33c-1.05-7.08-0.57-14.32,0.94-21.25l3.3,2.4c-6.12,3.58-12.86,6.27-19.92,7.46l-1.32,0.22l-0.66,0.11
				l-0.67,0.07l-2.67,0.28c-0.89,0.07-1.78,0.08-2.68,0.12c-0.45,0.01-0.89,0.04-1.34,0.04l-1.34-0.03
				c-3.57-0.02-7.11-0.5-10.6-1.17c-1.73-0.4-3.47-0.75-5.15-1.29c-0.85-0.25-1.7-0.48-2.54-0.76l-2.49-0.89l-1.24-0.45
				c-0.41-0.15-0.81-0.34-1.22-0.5l-2.43-1.03l-4.69-2c-1.54-0.7-3.14-1.25-4.72-1.83l-2.38-0.87l-2.42-0.75l-2.41-0.76
				c-0.4-0.14-0.81-0.24-1.22-0.34l-1.22-0.31c-1.63-0.41-3.26-0.87-4.92-1.15c-6.6-1.37-13.35-1.97-20.1-1.8
				c-3.38,0.05-6.74,0.41-10.09,0.86c-3.33,0.57-6.66,1.2-9.91,2.16c-1.65,0.41-3.24,0.98-4.86,1.49l-2.39,0.88
				c-0.4,0.15-0.8,0.29-1.19,0.45l-1.18,0.49c-0.78,0.34-1.58,0.63-2.34,1L414,80.9c-1.52,0.77-3.05,1.52-4.53,2.36
				c-2.98,1.65-5.87,3.49-8.64,5.49c-2.77,2-5.47,4.14-7.9,6.56c4.59-5.12,10.08-9.42,15.92-13.11c1.46-0.93,2.96-1.78,4.48-2.63
				l2.31-1.2c0.76-0.41,1.56-0.75,2.34-1.13l1.18-0.55c0.39-0.18,0.8-0.34,1.2-0.51l2.4-1.01c1.63-0.59,3.24-1.25,4.91-1.75
				c13.24-4.35,27.64-5.03,41.38-2.53c1.73,0.25,3.43,0.68,5.13,1.06l1.28,0.29c0.43,0.1,0.85,0.19,1.27,0.32l2.52,0.72l2.52,0.73
				l2.47,0.86c1.65,0.58,3.31,1.12,4.91,1.82l4.81,1.97l2.33,0.95c0.39,0.15,0.77,0.33,1.17,0.46l1.19,0.4l2.37,0.81
				c0.8,0.25,1.6,0.45,2.4,0.68c1.6,0.49,3.23,0.78,4.85,1.13c3.26,0.56,6.55,1.02,9.86,1.01l1.24,0.03c0.41,0,0.82-0.03,1.23-0.05
				c0.82-0.04,1.65-0.06,2.47-0.12l2.46-0.27l0.61-0.07l0.61-0.11l1.22-0.21c6.5-1.12,12.7-3.65,18.41-7l4.41-2.59l-1.11,4.99
				c-1.43,6.47-1.91,13.15-0.97,19.67l0.17,1.22l0.09,0.61l0.12,0.6l0.5,2.42c0.19,0.8,0.43,1.59,0.65,2.39
				c0.11,0.4,0.21,0.8,0.34,1.19l0.41,1.17c1.02,3.14,2.46,6.13,4,9.06c0.84,1.43,1.62,2.9,2.58,4.26c0.46,0.69,0.91,1.4,1.39,2.08
				l1.5,2l0.75,1c0.25,0.33,0.53,0.64,0.8,0.97l1.62,1.92l3.36,3.97c1.16,1.31,2.19,2.72,3.25,4.11l1.59,2.08l1.47,2.17l1.46,2.17
				c0.25,0.36,0.47,0.73,0.7,1.11l0.67,1.13c0.89,1.5,1.82,2.98,2.6,4.55c6.63,12.3,10.43,26.2,10.38,40.14
				c0.04,1.74-0.09,3.48-0.14,5.21l-0.21,2.6c-0.04,0.43-0.07,0.86-0.12,1.3l-0.16,1.29c-0.12,0.86-0.19,1.72-0.35,2.58l-0.43,2.56
				c-0.34,1.7-0.68,3.39-1.12,5.07C584.83,218,582.44,224.54,578.99,230.5z"/>
			<path class="st0" d="M532.64,166.61c-1.57-1.46-3.01-3.05-4.41-4.68c-1.39-1.63-2.69-3.35-3.95-5.1
				c-2.46-3.54-4.65-7.29-6.37-11.3c-0.86-2-1.62-4.06-2.21-6.17c-0.59-2.12-1.02-4.29-1.29-6.49c-0.24-2.21-0.27-4.44-0.11-6.67
				c0.2-2.23,0.65-4.44,1.29-6.59l2.39,1.73c-1.85,1.27-3.81,2.38-5.87,3.26c-2.07,0.84-4.21,1.5-6.38,1.96
				c-2.18,0.42-4.37,0.69-6.57,0.78c-2.2,0.09-4.39,0-6.55-0.2c-4.34-0.39-8.59-1.32-12.72-2.57c-2.06-0.65-4.09-1.36-6.07-2.18
				c-1.98-0.82-3.94-1.7-5.81-2.75c4.03,1.43,8.13,2.58,12.27,3.44c2.07,0.44,4.15,0.81,6.23,1.07c2.09,0.26,4.17,0.49,6.26,0.55
				c2.09,0.06,4.17,0.04,6.23-0.12c2.06-0.18,4.1-0.47,6.1-0.92c1.99-0.48,3.93-1.11,5.8-1.9c1.86-0.82,3.62-1.82,5.28-2.97
				l3.67-2.54l-1.28,4.27c-0.58,1.93-0.99,3.92-1.2,5.94c-0.18,2.02-0.17,4.06-0.02,6.1c0.19,2.04,0.54,4.07,1.01,6.09
				c0.49,2.01,1.11,4,1.81,5.97c0.7,1.97,1.57,3.88,2.46,5.78c0.9,1.9,1.89,3.77,2.95,5.6
				C527.67,159.68,530.04,163.22,532.64,166.61z"/>
		</g>
	</g>
</g>
</svg>
